<svg width="1108" height="451" viewBox="0 0 1108 451" fill="none" xmlns="http://www.w3.org/2000/svg">
<path d="M857.954 1.91309C981.395 -11.7844 1092.58 77.1452 1106.34 200.575C1120.1 324.01 1031.22 435.24 907.801 449.061C784.287 462.894 672.956 373.941 659.185 250.422C645.42 126.897 734.428 15.6162 857.954 1.91309ZM895.409 347.188C962.855 339.74 1011.47 278.988 1003.95 211.553C996.426 144.113 935.624 95.5662 868.189 103.161C800.867 110.739 752.405 171.429 759.915 238.768C767.425 306.101 828.065 354.625 895.409 347.188Z" fill="white" fill-opacity="0.4"/>
<path d="M197.761 1.57528C211.312 -0.0404986 224.982 -0.412066 238.6 0.454936C358.269 8.08343 450.779 108.481 448.612 228.375C446.444 348.269 350.365 445.255 230.499 448.554C110.633 451.853 9.36836 360.3 0.608265 240.705C-8.15183 121.115 78.6891 15.7795 197.761 1.57528ZM233.37 347.346C300.614 341.761 350.556 282.664 344.848 215.432C339.139 148.2 279.941 98.3699 212.725 104.208C145.679 110.024 96.0123 169.031 101.704 236.082C107.402 303.134 166.307 352.914 233.37 347.346Z" fill="white" fill-opacity="0.4"/>
<path d="M549.262 67.1405C568.432 66.8084 635.546 65.5529 650.06 72.3764C653.173 73.8401 654.53 75.9176 655.532 79.0816C660.368 94.3217 661.038 139.575 653.854 153.43C646.333 167.944 615.199 160.664 601.8 161.362C596.356 161.649 591.481 162.961 586.318 164.543C582.524 168.169 579.838 171.592 578.566 176.799C573.724 196.555 576.528 219.851 576.843 240.175L577.637 352.283C577.766 373.08 579.557 395.261 577.125 415.867C576.308 422.769 574.343 428.089 571.134 434.248C564.559 441.432 556.947 443.819 547.449 445.024C529.169 447.349 496.279 449.275 481.428 437.08C473.022 430.172 472.42 421.891 471.542 411.796C470.033 394.462 471.131 376.559 471.266 359.157L471.699 269.771L471.728 161.188C471.728 140.847 470.737 119.932 472.482 99.6757C473.112 92.3568 474.126 83.8782 479.232 78.1864C491.821 64.168 531.072 67.6191 549.262 67.1405Z" fill="white" fill-opacity="0.4"/>
</svg>
